<?xml version="1.0" encoding="UTF-8" standalone="no"?>
<!-- Created with Inkscape (http://www.inkscape.org/) -->

<svg
   width="135.46666mm"
   height="135.46666mm"
   viewBox="0 0 135.46666 135.46666"
   version="1.1"
   id="svg5"
   xmlns="http://www.w3.org/2000/svg"
   xmlns:svg="http://www.w3.org/2000/svg">
  <defs
     id="defs2" />
  <g
     id="layer1"
     transform="translate(-37.990326,-75.550041)">
    <g
       id="g20901"
       transform="matrix(1.0025622,0,0,1.0025622,0.43685203,-1.6515407)">
      <path
         id="path20503"
         style="color:#000000;display:inline;opacity:1;fill:#ff7f2a;stroke-width:45.7232;-inkscape-stroke:none"
         d="M 251.97656,110.67969 A 119.42959,121.67994 0 0 0 132.54688,232.35938 119.42959,121.67994 0 0 0 251.97656,354.03906 119.42959,121.67994 0 0 0 371.40625,232.35938 119.42959,121.67994 0 0 0 251.97656,110.67969 Z m -15.64453,15.0625 c 0.30236,-0.008 0.6026,-0.004 0.90039,0.008 8.33847,0.28535 14.74606,6.71647 14.7461,14.27148 0,10.22877 -8.45701,18.28208 -18.31641,20.89649 -25.30367,6.70968 -45.17067,27.02886 -51.60547,53.10351 -2.44479,9.9066 -9.21227,18.3418 -17.84766,18.3418 -10.22875,0 -18.68315,-8.36323 -16.96093,-18.43359 7.61695,-44.53901 42.32586,-80.04518 86.30664,-87.91211 0.94274,-0.16857 1.8701,-0.25681 2.77734,-0.27344 z m 15.27149,41.45703 c 15.11622,0 2.41723,11.74653 16.38281,17.53125 13.96558,5.78475 13.2917,-11.49935 23.98047,-0.81055 10.6888,10.68877 -6.59527,10.01489 -0.81055,23.98047 5.78476,13.96554 17.53125,1.26659 17.53125,16.38281 0,15.11622 -11.74649,2.41723 -17.53125,16.38282 -5.78472,13.96554 11.49935,13.2917 0.81055,23.98046 -10.68877,10.68877 -10.01489,-6.59526 -23.98047,-0.81054 -13.96558,5.78472 -1.26659,17.53125 -16.38281,17.53125 -15.11622,0 -2.41724,-11.74653 -16.38282,-17.53125 -13.96554,-5.78472 -13.2917,11.49931 -23.98047,0.81054 -10.68876,-10.68876 6.59527,-10.01492 0.81055,-23.98046 -5.78472,-13.96559 -17.53125,-1.2666 -17.53125,-16.38282 0,-15.11622 11.74653,-2.41727 17.53125,-16.38281 5.78472,-13.96558 -11.49931,-13.2917 -0.81055,-23.98047 10.68877,-10.6888 10.01493,6.5953 23.98047,0.81055 13.96558,-5.78472 1.2666,-17.53125 16.38282,-17.53125 z"
         transform="matrix(0.26458333,0,0,0.26458333,37.990326,75.550041)" />
      <path
         style="color:#000000;fill:#ff7f2a;-inkscape-stroke:none"
         d="m 105.05401,99.20415 c -29.74812,0.0132 -56.52037,17.28306 -67.09766,43.63672 0,0 -0.49876,1.12453 -0.49885,1.72266 -9e-5,0.59813 0.49885,1.72461 0.49885,1.72461 10.57118,26.35612 37.34955,43.62349 67.09766,43.63672 h 0.002 0.002 c 29.76553,-0.0138 56.55523,-17.30116 67.11328,-43.67969 0,0 0.40698,-1.1339 0.40666,-1.72461 -3.2e-4,-0.59071 -0.40861,-1.72461 -0.40861,-1.72461 -10.5884,-26.34395 -37.37102,-43.59148 -67.11328,-43.5918 z m 0.002,9.25977 h 0.002 c 25.46727,0.001 48.08538,14.43955 57.6582,36.06445 -9.54855,21.65301 -32.17165,36.12343 -57.6582,36.13672 -25.47323,-0.0113 -48.08747,-14.46576 -57.64649,-36.10156 9.55918,-21.63435 32.17274,-36.08754 57.64454,-36.09961 z"
         id="path20501" />
      <ellipse
         style="fill:#ff7f2a;fill-opacity:1;stroke:none;stroke-width:11.7461;stroke-miterlimit:4;stroke-dasharray:none;stroke-opacity:1"
         id="ellipse20505"
         cx="101.0655"
         cy="134.89163"
         rx="3.4946811"
         ry="3.5698352" />
      <circle
         style="fill:#ff7f2a;fill-opacity:1;stroke:none;stroke-width:12.3472;stroke-miterlimit:4;stroke-dasharray:none;stroke-opacity:1"
         id="circle20507"
         cx="107.52488"
         cy="140.03162"
         r="2.5477662" />
    </g>
  </g>
</svg>
